<mxfile host="app.diagrams.net" agent="Mozilla/5.0 (Windows NT 10.0; Win64; x64) AppleWebKit/537.36 (KHTML, like Gecko) Chrome/133.0.0.0 Safari/537.36" version="26.0.11">
  <diagram name="Leht-1" id="eJoqNK122mUWUW8sHj7z">
    <mxGraphModel dx="660" dy="929" grid="1" gridSize="10" guides="1" tooltips="1" connect="1" arrows="1" fold="1" page="1" pageScale="1" pageWidth="827" pageHeight="1169" math="0" shadow="0">
      <root>
        <mxCell id="0" />
        <mxCell id="1" parent="0" />
        <mxCell id="cOv50cUFgCnfF5_R6j7H-1" value="Start" style="ellipse;whiteSpace=wrap;html=1;" vertex="1" parent="1">
          <mxGeometry x="320" y="80" width="80" height="80" as="geometry" />
        </mxCell>
        <mxCell id="cOv50cUFgCnfF5_R6j7H-2" value="Kasutaja ei ole midagi sisetanud" style="rounded=1;whiteSpace=wrap;html=1;" vertex="1" parent="1">
          <mxGeometry x="320" y="200" width="80" height="60" as="geometry" />
        </mxCell>
        <mxCell id="cOv50cUFgCnfF5_R6j7H-6" style="edgeStyle=orthogonalEdgeStyle;rounded=0;orthogonalLoop=1;jettySize=auto;html=1;exitX=1;exitY=0.5;exitDx=0;exitDy=0;entryX=1;entryY=0.5;entryDx=0;entryDy=0;" edge="1" parent="1" source="cOv50cUFgCnfF5_R6j7H-3" target="cOv50cUFgCnfF5_R6j7H-2">
          <mxGeometry relative="1" as="geometry">
            <Array as="points">
              <mxPoint x="440" y="360" />
              <mxPoint x="440" y="230" />
            </Array>
          </mxGeometry>
        </mxCell>
        <mxCell id="cOv50cUFgCnfF5_R6j7H-7" value="Ei" style="edgeLabel;html=1;align=center;verticalAlign=middle;resizable=0;points=[];" vertex="1" connectable="0" parent="cOv50cUFgCnfF5_R6j7H-6">
          <mxGeometry x="0.0212" y="-2" relative="1" as="geometry">
            <mxPoint as="offset" />
          </mxGeometry>
        </mxCell>
        <mxCell id="cOv50cUFgCnfF5_R6j7H-3" value="&lt;font style=&quot;font-size: 10px;&quot;&gt;Kas kasutaja&amp;nbsp;&lt;/font&gt;&lt;div&gt;&lt;font style=&quot;font-size: 10px;&quot;&gt;on sisteanud&lt;/font&gt;&lt;/div&gt;&lt;div&gt;&lt;font style=&quot;font-size: 10px;&quot;&gt;bitcoini arvu?&lt;/font&gt;&lt;/div&gt;" style="rhombus;whiteSpace=wrap;html=1;" vertex="1" parent="1">
          <mxGeometry x="320" y="320" width="80" height="80" as="geometry" />
        </mxCell>
        <mxCell id="cOv50cUFgCnfF5_R6j7H-4" value="" style="endArrow=classic;html=1;rounded=0;exitX=0.5;exitY=1;exitDx=0;exitDy=0;entryX=0.5;entryY=0;entryDx=0;entryDy=0;" edge="1" parent="1" source="cOv50cUFgCnfF5_R6j7H-1" target="cOv50cUFgCnfF5_R6j7H-2">
          <mxGeometry width="50" height="50" relative="1" as="geometry">
            <mxPoint x="420" y="280" as="sourcePoint" />
            <mxPoint x="470" y="230" as="targetPoint" />
          </mxGeometry>
        </mxCell>
        <mxCell id="cOv50cUFgCnfF5_R6j7H-5" value="" style="endArrow=classic;html=1;rounded=0;exitX=0.5;exitY=1;exitDx=0;exitDy=0;entryX=0.5;entryY=0;entryDx=0;entryDy=0;" edge="1" parent="1" source="cOv50cUFgCnfF5_R6j7H-2" target="cOv50cUFgCnfF5_R6j7H-3">
          <mxGeometry width="50" height="50" relative="1" as="geometry">
            <mxPoint x="420" y="300" as="sourcePoint" />
            <mxPoint x="470" y="250" as="targetPoint" />
          </mxGeometry>
        </mxCell>
        <mxCell id="cOv50cUFgCnfF5_R6j7H-12" style="edgeStyle=orthogonalEdgeStyle;rounded=0;orthogonalLoop=1;jettySize=auto;html=1;exitX=1;exitY=0.5;exitDx=0;exitDy=0;entryX=1;entryY=0.5;entryDx=0;entryDy=0;" edge="1" parent="1" source="cOv50cUFgCnfF5_R6j7H-9" target="cOv50cUFgCnfF5_R6j7H-2">
          <mxGeometry relative="1" as="geometry">
            <Array as="points">
              <mxPoint x="460" y="520" />
              <mxPoint x="460" y="230" />
            </Array>
          </mxGeometry>
        </mxCell>
        <mxCell id="cOv50cUFgCnfF5_R6j7H-13" value="Ei" style="edgeLabel;html=1;align=center;verticalAlign=middle;resizable=0;points=[];" vertex="1" connectable="0" parent="cOv50cUFgCnfF5_R6j7H-12">
          <mxGeometry x="-0.2021" relative="1" as="geometry">
            <mxPoint as="offset" />
          </mxGeometry>
        </mxCell>
        <mxCell id="cOv50cUFgCnfF5_R6j7H-9" value="Kas kasutaja&amp;nbsp;&lt;div&gt;on vajutanud&lt;/div&gt;&lt;div&gt;convert&lt;/div&gt;&lt;div&gt;nuppu&lt;/div&gt;" style="rhombus;whiteSpace=wrap;html=1;" vertex="1" parent="1">
          <mxGeometry x="290" y="480" width="140" height="80" as="geometry" />
        </mxCell>
        <mxCell id="cOv50cUFgCnfF5_R6j7H-10" value="" style="endArrow=classic;html=1;rounded=0;exitX=0.5;exitY=1;exitDx=0;exitDy=0;entryX=0.5;entryY=0;entryDx=0;entryDy=0;" edge="1" parent="1" source="cOv50cUFgCnfF5_R6j7H-3" target="cOv50cUFgCnfF5_R6j7H-9">
          <mxGeometry width="50" height="50" relative="1" as="geometry">
            <mxPoint x="370" y="430" as="sourcePoint" />
            <mxPoint x="420" y="380" as="targetPoint" />
          </mxGeometry>
        </mxCell>
        <mxCell id="cOv50cUFgCnfF5_R6j7H-11" value="Jah" style="edgeLabel;html=1;align=center;verticalAlign=middle;resizable=0;points=[];" vertex="1" connectable="0" parent="cOv50cUFgCnfF5_R6j7H-10">
          <mxGeometry x="-0.0972" y="1" relative="1" as="geometry">
            <mxPoint as="offset" />
          </mxGeometry>
        </mxCell>
        <mxCell id="cOv50cUFgCnfF5_R6j7H-14" value="kas API-st&lt;div&gt;on andmed&lt;/div&gt;&lt;div&gt;saadud&lt;/div&gt;" style="rhombus;whiteSpace=wrap;html=1;" vertex="1" parent="1">
          <mxGeometry x="320" y="640" width="80" height="80" as="geometry" />
        </mxCell>
        <mxCell id="cOv50cUFgCnfF5_R6j7H-17" value="" style="endArrow=classic;html=1;rounded=0;exitX=0.5;exitY=1;exitDx=0;exitDy=0;entryX=0.5;entryY=0;entryDx=0;entryDy=0;" edge="1" parent="1" source="cOv50cUFgCnfF5_R6j7H-9" target="cOv50cUFgCnfF5_R6j7H-14">
          <mxGeometry width="50" height="50" relative="1" as="geometry">
            <mxPoint x="420" y="560" as="sourcePoint" />
            <mxPoint x="470" y="510" as="targetPoint" />
          </mxGeometry>
        </mxCell>
        <mxCell id="cOv50cUFgCnfF5_R6j7H-18" value="Jah" style="edgeLabel;html=1;align=center;verticalAlign=middle;resizable=0;points=[];" vertex="1" connectable="0" parent="cOv50cUFgCnfF5_R6j7H-17">
          <mxGeometry x="-0.0821" y="1" relative="1" as="geometry">
            <mxPoint as="offset" />
          </mxGeometry>
        </mxCell>
        <mxCell id="cOv50cUFgCnfF5_R6j7H-28" style="edgeStyle=orthogonalEdgeStyle;rounded=0;orthogonalLoop=1;jettySize=auto;html=1;exitX=0.5;exitY=1;exitDx=0;exitDy=0;entryX=0.5;entryY=0;entryDx=0;entryDy=0;" edge="1" parent="1" source="cOv50cUFgCnfF5_R6j7H-19" target="cOv50cUFgCnfF5_R6j7H-21">
          <mxGeometry relative="1" as="geometry" />
        </mxCell>
        <mxCell id="cOv50cUFgCnfF5_R6j7H-19" value="Tee API-le pÃ¤ring&lt;div&gt;bitcoini conversion ratei&amp;nbsp;&lt;span style=&quot;background-color: transparent; color: light-dark(rgb(0, 0, 0), rgb(255, 255, 255));&quot;&gt;saamiseks&lt;/span&gt;&lt;/div&gt;" style="rhombus;whiteSpace=wrap;html=1;" vertex="1" parent="1">
          <mxGeometry x="420" y="720" width="120" height="80" as="geometry" />
        </mxCell>
        <mxCell id="cOv50cUFgCnfF5_R6j7H-20" value="" style="endArrow=classic;html=1;rounded=0;exitX=1;exitY=0.5;exitDx=0;exitDy=0;entryX=0.5;entryY=0;entryDx=0;entryDy=0;" edge="1" parent="1" source="cOv50cUFgCnfF5_R6j7H-14" target="cOv50cUFgCnfF5_R6j7H-19">
          <mxGeometry width="50" height="50" relative="1" as="geometry">
            <mxPoint x="470" y="580" as="sourcePoint" />
            <mxPoint x="520" y="530" as="targetPoint" />
            <Array as="points">
              <mxPoint x="480" y="680" />
            </Array>
          </mxGeometry>
        </mxCell>
        <mxCell id="cOv50cUFgCnfF5_R6j7H-24" value="Ei" style="edgeLabel;html=1;align=center;verticalAlign=middle;resizable=0;points=[];" vertex="1" connectable="0" parent="cOv50cUFgCnfF5_R6j7H-20">
          <mxGeometry x="-0.2349" relative="1" as="geometry">
            <mxPoint as="offset" />
          </mxGeometry>
        </mxCell>
        <mxCell id="cOv50cUFgCnfF5_R6j7H-30" style="edgeStyle=orthogonalEdgeStyle;rounded=0;orthogonalLoop=1;jettySize=auto;html=1;exitX=1;exitY=0.5;exitDx=0;exitDy=0;entryX=0;entryY=0.5;entryDx=0;entryDy=0;" edge="1" parent="1" source="cOv50cUFgCnfF5_R6j7H-21" target="cOv50cUFgCnfF5_R6j7H-29">
          <mxGeometry relative="1" as="geometry" />
        </mxCell>
        <mxCell id="cOv50cUFgCnfF5_R6j7H-40" value="Ei" style="edgeLabel;html=1;align=center;verticalAlign=middle;resizable=0;points=[];" vertex="1" connectable="0" parent="cOv50cUFgCnfF5_R6j7H-30">
          <mxGeometry x="-0.5833" y="3" relative="1" as="geometry">
            <mxPoint as="offset" />
          </mxGeometry>
        </mxCell>
        <mxCell id="cOv50cUFgCnfF5_R6j7H-43" style="edgeStyle=orthogonalEdgeStyle;rounded=0;orthogonalLoop=1;jettySize=auto;html=1;exitX=0.5;exitY=1;exitDx=0;exitDy=0;entryX=0.5;entryY=0;entryDx=0;entryDy=0;" edge="1" parent="1" source="cOv50cUFgCnfF5_R6j7H-21" target="cOv50cUFgCnfF5_R6j7H-42">
          <mxGeometry relative="1" as="geometry" />
        </mxCell>
        <mxCell id="cOv50cUFgCnfF5_R6j7H-44" value="Jah" style="edgeLabel;html=1;align=center;verticalAlign=middle;resizable=0;points=[];" vertex="1" connectable="0" parent="cOv50cUFgCnfF5_R6j7H-43">
          <mxGeometry x="-0.0214" y="2" relative="1" as="geometry">
            <mxPoint as="offset" />
          </mxGeometry>
        </mxCell>
        <mxCell id="cOv50cUFgCnfF5_R6j7H-21" value="Kas kasutaja&lt;div&gt;on valinud&lt;/div&gt;&lt;div&gt;valuuta millesse&lt;/div&gt;&lt;div&gt;convertida&lt;/div&gt;" style="rhombus;whiteSpace=wrap;html=1;" vertex="1" parent="1">
          <mxGeometry x="320" y="890" width="80" height="80" as="geometry" />
        </mxCell>
        <mxCell id="cOv50cUFgCnfF5_R6j7H-22" value="" style="endArrow=classic;html=1;rounded=0;exitX=0.5;exitY=1;exitDx=0;exitDy=0;entryX=0.5;entryY=0;entryDx=0;entryDy=0;" edge="1" parent="1" source="cOv50cUFgCnfF5_R6j7H-14" target="cOv50cUFgCnfF5_R6j7H-21">
          <mxGeometry width="50" height="50" relative="1" as="geometry">
            <mxPoint x="410" y="690" as="sourcePoint" />
            <mxPoint x="460" y="640" as="targetPoint" />
          </mxGeometry>
        </mxCell>
        <mxCell id="cOv50cUFgCnfF5_R6j7H-23" value="Jah" style="edgeLabel;html=1;align=center;verticalAlign=middle;resizable=0;points=[];" vertex="1" connectable="0" parent="cOv50cUFgCnfF5_R6j7H-22">
          <mxGeometry x="-0.1071" y="1" relative="1" as="geometry">
            <mxPoint as="offset" />
          </mxGeometry>
        </mxCell>
        <mxCell id="cOv50cUFgCnfF5_R6j7H-33" style="edgeStyle=orthogonalEdgeStyle;rounded=0;orthogonalLoop=1;jettySize=auto;html=1;exitX=1;exitY=0.5;exitDx=0;exitDy=0;entryX=0;entryY=0.5;entryDx=0;entryDy=0;" edge="1" parent="1" source="cOv50cUFgCnfF5_R6j7H-29" target="cOv50cUFgCnfF5_R6j7H-31">
          <mxGeometry relative="1" as="geometry" />
        </mxCell>
        <mxCell id="cOv50cUFgCnfF5_R6j7H-29" value="Kuvame akna tekstiga &quot;Palun vali sihtvaluuta millesse convertida&quot;" style="shape=parallelogram;perimeter=parallelogramPerimeter;whiteSpace=wrap;html=1;fixedSize=1;" vertex="1" parent="1">
          <mxGeometry x="450" y="900" width="150" height="60" as="geometry" />
        </mxCell>
        <mxCell id="cOv50cUFgCnfF5_R6j7H-35" style="edgeStyle=orthogonalEdgeStyle;rounded=0;orthogonalLoop=1;jettySize=auto;html=1;exitX=0.5;exitY=0;exitDx=0;exitDy=0;entryX=0.5;entryY=1;entryDx=0;entryDy=0;" edge="1" parent="1" source="cOv50cUFgCnfF5_R6j7H-31" target="cOv50cUFgCnfF5_R6j7H-34">
          <mxGeometry relative="1" as="geometry" />
        </mxCell>
        <mxCell id="cOv50cUFgCnfF5_R6j7H-31" value="Ootab kuni kasutaja vajutab &quot;ok&quot;" style="rounded=1;whiteSpace=wrap;html=1;" vertex="1" parent="1">
          <mxGeometry x="640" y="900" width="120" height="60" as="geometry" />
        </mxCell>
        <mxCell id="cOv50cUFgCnfF5_R6j7H-36" style="edgeStyle=orthogonalEdgeStyle;rounded=0;orthogonalLoop=1;jettySize=auto;html=1;exitX=1;exitY=0.5;exitDx=0;exitDy=0;entryX=1;entryY=0.5;entryDx=0;entryDy=0;" edge="1" parent="1" source="cOv50cUFgCnfF5_R6j7H-34" target="cOv50cUFgCnfF5_R6j7H-31">
          <mxGeometry relative="1" as="geometry" />
        </mxCell>
        <mxCell id="cOv50cUFgCnfF5_R6j7H-39" value="Ei" style="edgeLabel;html=1;align=center;verticalAlign=middle;resizable=0;points=[];" vertex="1" connectable="0" parent="cOv50cUFgCnfF5_R6j7H-36">
          <mxGeometry x="-0.0089" y="3" relative="1" as="geometry">
            <mxPoint as="offset" />
          </mxGeometry>
        </mxCell>
        <mxCell id="cOv50cUFgCnfF5_R6j7H-37" style="edgeStyle=orthogonalEdgeStyle;rounded=0;orthogonalLoop=1;jettySize=auto;html=1;exitX=0.5;exitY=0;exitDx=0;exitDy=0;entryX=1;entryY=0.5;entryDx=0;entryDy=0;" edge="1" parent="1" source="cOv50cUFgCnfF5_R6j7H-34" target="cOv50cUFgCnfF5_R6j7H-2">
          <mxGeometry relative="1" as="geometry" />
        </mxCell>
        <mxCell id="cOv50cUFgCnfF5_R6j7H-38" value="Jah" style="edgeLabel;html=1;align=center;verticalAlign=middle;resizable=0;points=[];" vertex="1" connectable="0" parent="cOv50cUFgCnfF5_R6j7H-37">
          <mxGeometry x="-0.7494" y="-2" relative="1" as="geometry">
            <mxPoint as="offset" />
          </mxGeometry>
        </mxCell>
        <mxCell id="cOv50cUFgCnfF5_R6j7H-34" value="Kas on vajutatud &quot;Ok&quot;" style="rhombus;whiteSpace=wrap;html=1;" vertex="1" parent="1">
          <mxGeometry x="640" y="780" width="120" height="80" as="geometry" />
        </mxCell>
        <mxCell id="cOv50cUFgCnfF5_R6j7H-52" style="edgeStyle=orthogonalEdgeStyle;rounded=0;orthogonalLoop=1;jettySize=auto;html=1;exitX=0.5;exitY=1;exitDx=0;exitDy=0;entryX=0.5;entryY=0;entryDx=0;entryDy=0;" edge="1" parent="1" source="cOv50cUFgCnfF5_R6j7H-42" target="cOv50cUFgCnfF5_R6j7H-50">
          <mxGeometry relative="1" as="geometry" />
        </mxCell>
        <mxCell id="cOv50cUFgCnfF5_R6j7H-57" value="Ei" style="edgeLabel;html=1;align=center;verticalAlign=middle;resizable=0;points=[];" vertex="1" connectable="0" parent="cOv50cUFgCnfF5_R6j7H-52">
          <mxGeometry x="-0.3267" y="3" relative="1" as="geometry">
            <mxPoint as="offset" />
          </mxGeometry>
        </mxCell>
        <mxCell id="cOv50cUFgCnfF5_R6j7H-60" style="edgeStyle=orthogonalEdgeStyle;rounded=0;orthogonalLoop=1;jettySize=auto;html=1;exitX=1;exitY=0.5;exitDx=0;exitDy=0;entryX=0;entryY=0;entryDx=0;entryDy=0;" edge="1" parent="1" source="cOv50cUFgCnfF5_R6j7H-42" target="cOv50cUFgCnfF5_R6j7H-56">
          <mxGeometry relative="1" as="geometry" />
        </mxCell>
        <mxCell id="cOv50cUFgCnfF5_R6j7H-62" value="jah" style="edgeLabel;html=1;align=center;verticalAlign=middle;resizable=0;points=[];" vertex="1" connectable="0" parent="cOv50cUFgCnfF5_R6j7H-60">
          <mxGeometry x="-0.4201" y="2" relative="1" as="geometry">
            <mxPoint as="offset" />
          </mxGeometry>
        </mxCell>
        <mxCell id="cOv50cUFgCnfF5_R6j7H-42" value="Kas Kasutaja valis GBP" style="rhombus;whiteSpace=wrap;html=1;" vertex="1" parent="1">
          <mxGeometry x="320" y="1110" width="80" height="80" as="geometry" />
        </mxCell>
        <mxCell id="cOv50cUFgCnfF5_R6j7H-53" style="edgeStyle=orthogonalEdgeStyle;rounded=0;orthogonalLoop=1;jettySize=auto;html=1;exitX=0.5;exitY=1;exitDx=0;exitDy=0;entryX=0.5;entryY=0;entryDx=0;entryDy=0;" edge="1" parent="1" source="cOv50cUFgCnfF5_R6j7H-50" target="cOv50cUFgCnfF5_R6j7H-51">
          <mxGeometry relative="1" as="geometry" />
        </mxCell>
        <mxCell id="cOv50cUFgCnfF5_R6j7H-58" value="Ei" style="edgeLabel;html=1;align=center;verticalAlign=middle;resizable=0;points=[];" vertex="1" connectable="0" parent="cOv50cUFgCnfF5_R6j7H-53">
          <mxGeometry x="-0.1056" y="2" relative="1" as="geometry">
            <mxPoint as="offset" />
          </mxGeometry>
        </mxCell>
        <mxCell id="cOv50cUFgCnfF5_R6j7H-59" style="edgeStyle=orthogonalEdgeStyle;rounded=0;orthogonalLoop=1;jettySize=auto;html=1;exitX=1;exitY=0.5;exitDx=0;exitDy=0;entryX=0;entryY=0.5;entryDx=0;entryDy=0;" edge="1" parent="1" source="cOv50cUFgCnfF5_R6j7H-50" target="cOv50cUFgCnfF5_R6j7H-56">
          <mxGeometry relative="1" as="geometry" />
        </mxCell>
        <mxCell id="cOv50cUFgCnfF5_R6j7H-63" value="jah" style="edgeLabel;html=1;align=center;verticalAlign=middle;resizable=0;points=[];" vertex="1" connectable="0" parent="cOv50cUFgCnfF5_R6j7H-59">
          <mxGeometry x="-0.1667" y="-1" relative="1" as="geometry">
            <mxPoint as="offset" />
          </mxGeometry>
        </mxCell>
        <mxCell id="cOv50cUFgCnfF5_R6j7H-50" value="Kas kasutaja valis USD" style="rhombus;whiteSpace=wrap;html=1;" vertex="1" parent="1">
          <mxGeometry x="320" y="1240" width="80" height="80" as="geometry" />
        </mxCell>
        <mxCell id="cOv50cUFgCnfF5_R6j7H-61" style="edgeStyle=orthogonalEdgeStyle;rounded=0;orthogonalLoop=1;jettySize=auto;html=1;exitX=1;exitY=0.5;exitDx=0;exitDy=0;entryX=0;entryY=1;entryDx=0;entryDy=0;" edge="1" parent="1" source="cOv50cUFgCnfF5_R6j7H-51" target="cOv50cUFgCnfF5_R6j7H-56">
          <mxGeometry relative="1" as="geometry" />
        </mxCell>
        <mxCell id="cOv50cUFgCnfF5_R6j7H-64" value="jah" style="edgeLabel;html=1;align=center;verticalAlign=middle;resizable=0;points=[];" vertex="1" connectable="0" parent="cOv50cUFgCnfF5_R6j7H-61">
          <mxGeometry x="-0.4242" y="-2" relative="1" as="geometry">
            <mxPoint as="offset" />
          </mxGeometry>
        </mxCell>
        <mxCell id="cOv50cUFgCnfF5_R6j7H-51" value="Kas kasutaja valis EEK" style="rhombus;whiteSpace=wrap;html=1;" vertex="1" parent="1">
          <mxGeometry x="320" y="1380" width="80" height="80" as="geometry" />
        </mxCell>
        <mxCell id="cOv50cUFgCnfF5_R6j7H-56" value="Arvutab Valuutast bitcoini conversion ratei" style="shape=parallelogram;perimeter=parallelogramPerimeter;whiteSpace=wrap;html=1;fixedSize=1;" vertex="1" parent="1">
          <mxGeometry x="510" y="1250" width="120" height="60" as="geometry" />
        </mxCell>
      </root>
    </mxGraphModel>
  </diagram>
</mxfile>
